{
  "accessors": [
    {
      "bufferView": 2,
      "componentType": 5126,
      "count": 65532,
      "max": [
        0.87969738245010376,
        0.77184152603149414,
        0.57902997732162476
      ],
      "min": [
        -1.2818095684051514,
        -1.1277955770492554,
        -0.93154054880142212
      ],
      "type": "VEC3"
    },
    {
      "bufferView": 2,
      "byteOffset": 786384,
      "componentType": 5126,
      "count": 65532,
      "max": [
        0.99999260902404785,
        0.99988430738449097,
        0.98892492055892944
      ],
      "min": [
        -0.99994206428527832,
        -0.99980050325393677,
        -0.99999713897705078
      ],
      "type": "VEC3"
    },
    {
      "bufferView": 1,
      "componentType": 5126,
      "count": 65532,
      "max": [
        0.93650317192077637,
        0.99993085861206055
      ],
      "min": [
        2.2739171981811523e-05,
        0.00033015012741088867
      ],
      "type": "VEC2"
    },
    {
      "bufferView": 0,
      "componentType": 5125,
      "count": 379065,
      "max": [
        65531
      ],
      "min": [
        0
      ],
      "type": "SCALAR"
    },
    {
      "bufferView": 2,
      "byteOffset": 1572768,
      "componentType": 5126,
      "count": 3150,
      "max": [
        -0.50559288263320923,
        0.68407273292541504,
        -0.066117368638515472
      ],
      "min": [
        -1.2779796123504639,
        0.014645714312791824,
        -0.8329964280128479
      ],
      "type": "VEC3"
    },
    {
      "bufferView": 2,
      "byteOffset": 1610568,
      "componentType": 5126,
      "count": 3150,
      "max": [
        0.99791443347930908,
        0.99211835861206055,
        0.98827576637268066
      ],
      "min": [
        -0.99818265438079834,
        -0.96111440658569336,
        -0.99994772672653198
      ],
      "type": "VEC3"
    },
    {
      "bufferView": 1,
      "byteOffset": 524256,
      "componentType": 5126,
      "count": 3150,
      "max": [
        0.93434900045394897,
        0.99377477169036865
      ],
      "min": [
        0.059467647224664688,
        0.00046491622924804688
      ],
      "type": "VEC2"
    },
    {
      "bufferView": 0,
      "byteOffset": 1516260,
      "componentType": 5125,
      "count": 10764,
      "max": [
        3149
      ],
      "min": [
        0
      ],
      "type": "SCALAR"
    },
    {
      "bufferView": 2,
      "byteOffset": 1648368,
      "componentType": 5126,
      "count": 65532,
      "max": [
        0.93022900819778442,
        0.78532993793487549,
        0.9713706374168396
      ],
      "min": [
        -1.259523868560791,
        -1.1175553798675537,
        -0.76771074533462524
      ],
      "type": "VEC3"
    },
    {
      "bufferView": 2,
      "byteOffset": 2434752,
      "componentType": 5126,
      "count": 65532,
      "max": [
        0.99999040365219116,
        0.99996066093444824,
        0.99998754262924194
      ],
      "min": [
        -0.99999409914016724,
        -0.99579030275344849,
        -0.99982857704162598
      ],
      "type": "VEC3"
    },
    {
      "bufferView": 1,
      "byteOffset": 549456,
      "componentType": 5126,
      "count": 65532,
      "max": [
        0.99996769428253174,
        0.93664342164993286
      ],
      "min": [
        0.00013428719830699265,
        0.00030672550201416016
      ],
      "type": "VEC2"
    },
    {
      "bufferView": 0,
      "byteOffset": 1559316,
      "componentType": 5125,
      "count": 379071,
      "max": [
        65531
      ],
      "min": [
        0
      ],
      "type": "SCALAR"
    },
    {
      "bufferView": 2,
      "byteOffset": 3221136,
      "componentType": 5126,
      "count": 15546,
      "max": [
        0.21780383586883545,
        0.77201926708221436,
        0.56247037649154663
      ],
      "min": [
        -1.2674239873886108,
        0.061383713036775589,
        -0.75927168130874634
      ],
      "type": "VEC3"
    },
    {
      "bufferView": 2,
      "byteOffset": 3407688,
      "componentType": 5126,
      "count": 15546,
      "max": [
        0.91957986354827881,
        0.99997276067733765,
        0.99974799156188965
      ],
      "min": [
        -0.99991816282272339,
        -0.99463129043579102,
        -0.99888664484024048
      ],
      "type": "VEC3"
    },
    {
      "bufferView": 1,
      "byteOffset": 1073712,
      "componentType": 5126,
      "count": 15546,
      "max": [
        0.72856074571609497,
        0.93655681610107422
      ],
      "min": [
        0.087662890553474426,
        0.22529491782188416
      ],
      "type": "VEC2"
    },
    {
      "bufferView": 0,
      "byteOffset": 3075600,
      "componentType": 5125,
      "count": 79050,
      "max": [
        15545
      ],
      "min": [
        0
      ],
      "type": "SCALAR"
    },
    {
      "bufferView": 2,
      "byteOffset": 3594240,
      "componentType": 5126,
      "count": 64709,
      "max": [
        0.3001253604888916,
        0.82182002067565918,
        1.0924071073532104
      ],
      "min": [
        -1.1426624059677124,
        -0.90045166015625,
        -1.2063180208206177
      ],
      "type": "VEC3"
    },
    {
      "bufferView": 2,
      "byteOffset": 4370748,
      "componentType": 5126,
      "count": 64709,
      "max": [
        0.99284696578979492,
        0.99997925758361816,
        0.99999749660491943
      ],
      "min": [
        -0.99996286630630493,
        -0.99905019998550415,
        -0.99999237060546875
      ],
      "type": "VEC3"
    },
    {
      "bufferView": 1,
      "byteOffset": 1198080,
      "componentType": 5126,
      "count": 64709,
      "max": [
        0.99955904483795166,
        0.84218049049377441
      ],
      "min": [
        0.00046351811033673584,
        0.00023025274276733398
      ],
      "type": "VEC2"
    },
    {
      "bufferView": 0,
      "byteOffset": 3391800,
      "componentType": 5125,
      "count": 379041,
      "max": [
        64708
      ],
      "min": [
        0
      ],
      "type": "SCALAR"
    },
    {
      "bufferView": 2,
      "byteOffset": 5147256,
      "componentType": 5126,
      "count": 65532,
      "max": [
        0.85986298322677612,
        0.95119267702102661,
        1.1134670972824097
      ],
      "min": [
        -0.71895003318786621,
        -1.134355902671814,
        -0.92382818460464478
      ],
      "type": "VEC3"
    },
    {
      "bufferView": 2,
      "byteOffset": 5933640,
      "componentType": 5126,
      "count": 65532,
      "max": [
        0.9999849796295166,
        0.999991774559021,
        0.99998623132705688
      ],
      "min": [
        -0.99238729476928711,
        -0.99994450807571411,
        -0.99956226348876953
      ],
      "type": "VEC3"
    },
    {
      "bufferView": 1,
      "byteOffset": 1715752,
      "componentType": 5126,
      "count": 65532,
      "max": [
        0.99957156181335449,
        0.98710167407989502
      ],
      "min": [
        0.00045292451977729797,
        0.00031116791069507599
      ],
      "type": "VEC2"
    },
    {
      "bufferView": 0,
      "byteOffset": 4907964,
      "componentType": 5125,
      "count": 376494,
      "max": [
        65531
      ],
      "min": [
        0
      ],
      "type": "SCALAR"
    },
    {
      "bufferView": 2,
      "byteOffset": 6720024,
      "componentType": 5126,
      "count": 25586,
      "max": [
        0.32276833057403564,
        0.95119267702102661,
        0.49841871857643127
      ],
      "min": [
        -0.7222144603729248,
        -0.7580716609954834,
        -0.91646391153335571
      ],
      "type": "VEC3"
    },
    {
      "bufferView": 2,
      "byteOffset": 7027056,
      "componentType": 5126,
      "count": 25586,
      "max": [
        0.99939423799514771,
        0.99995160102844238,
        0.99663889408111572
      ],
      "min": [
        -0.8822522759437561,
        -0.98834961652755737,
        -0.99938148260116577
      ],
      "type": "VEC3"
    },
    {
      "bufferView": 1,
      "byteOffset": 2240008,
      "componentType": 5126,
      "count": 25586,
      "max": [
        0.99955201148986816,
        0.82061088085174561
      ],
      "min": [
        0.034485459327697754,
        0.00041624158620834351
      ],
      "type": "VEC2"
    },
    {
      "bufferView": 0,
      "byteOffset": 6413940,
      "componentType": 5125,
      "count": 135285,
      "max": [
        25585
      ],
      "min": [
        0
      ],
      "type": "SCALAR"
    },
    {
      "bufferView": 2,
      "byteOffset": 7334088,
      "componentType": 5126,
      "count": 42171,
      "max": [
        0.91783088445663452,
        0.65980857610702515,
        1.0784729719161987
      ],
      "min": [
        -0.5771823525428772,
        -0.70640921592712402,
        0.39769163727760315
      ],
      "type": "VEC3"
    },
    {
      "bufferView": 2,
      "byteOffset": 7840140,
      "componentType": 5126,
      "count": 42171,
      "max": [
        0.9999159574508667,
        0.99994653463363647,
        0.99999541044235229
      ],
      "min": [
        -0.99964213371276855,
        -0.98883688449859619,
        -0.95977592468261719
      ],
      "type": "VEC3"
    },
    {
      "bufferView": 1,
      "byteOffset": 2444696,
      "componentType": 5126,
      "count": 42171,
      "max": [
        0.35050806403160095,
        0.99972683191299438
      ],
      "min": [
        7.1629881858825684e-05,
        0.00027310848236083984
      ],
      "type": "VEC2"
    },
    {
      "bufferView": 0,
      "byteOffset": 6955080,
      "componentType": 5125,
      "count": 248643,
      "max": [
        42170
      ],
      "min": [
        0
      ],
      "type": "SCALAR"
    },
    {
      "bufferView": 2,
      "byteOffset": 8346192,
      "componentType": 5126,
      "count": 21508,
      "max": [
        0.66911184787750244,
        0.039278540760278702,
        1.034748911857605
      ],
      "min": [
        -0.89071077108383179,
        -1.1372448205947876,
        -0.064320646226406097
      ],
      "type": "VEC3"
    },
    {
      "bufferView": 2,
      "byteOffset": 8604288,
      "componentType": 5126,
      "count": 21508,
      "max": [
        0.9977576732635498,
        0.98688316345214844,
        0.99811923503875732
      ],
      "min": [
        -0.99943959712982178,
        -0.99995285272598267,
        -0.99941784143447876
      ],
      "type": "VEC3"
    },
    {
      "bufferView": 1,
      "byteOffset": 2782064,
      "componentType": 5126,
      "count": 21508,
      "max": [
        0.99971294403076172,
        0.51937758922576904
      ],
      "min": [
        0.0002873539924621582,
        0.00046750903129577637
      ],
      "type": "VEC2"
    },
    {
      "bufferView": 0,
      "byteOffset": 7949652,
      "componentType": 5125,
      "count": 125907,
      "max": [
        21507
      ],
      "min": [
        0
      ],
      "type": "SCALAR"
    }
  ],
  "asset": {
    "extras": {
      "author": "Sara Carena (https://sketchfab.com/saracarena1)",
      "license": "CC-BY-NC-4.0 (http://creativecommons.org/licenses/by-nc/4.0/)",
      "source": "https://sketchfab.com/3d-models/rhodolith-7590e515433c43488fe8b699c3f394bd",
      "title": "Rhodolith"
    },
    "generator": "Sketchfab-8.83.0",
    "version": "2.0"
  },
  "bufferViews": [
    {
      "buffer": 0,
      "byteLength": 8453280,
      "byteOffset": 0,
      "name": "floatBufferViews",
      "target": 34963
    },
    {
      "buffer": 0,
      "byteLength": 2954128,
      "byteOffset": 8453280,
      "byteStride": 8,
      "name": "floatBufferViews",
      "target": 34962
    },
    {
      "buffer": 0,
      "byteLength": 8862384,
      "byteOffset": 11407408,
      "byteStride": 12,
      "name": "floatBufferViews",
      "target": 34962
    }
  ],
  "buffers": [
    {
      "byteLength": 20269792,
      "uri": "scene.bin"
    }
  ],
  "extensionsUsed": [
    "KHR_materials_unlit"
  ],
  "images": [
    {
      "uri": "textures/material2_baseColor.jpeg"
    },
    {
      "uri": "textures/material3_baseColor.jpeg"
    },
    {
      "uri": "textures/material5_baseColor.jpeg"
    },
    {
      "uri": "textures/material4_baseColor.jpeg"
    },
    {
      "uri": "textures/material0_baseColor.jpeg"
    },
    {
      "uri": "textures/material1_baseColor.jpeg"
    }
  ],
  "materials": [
    {
      "doubleSided": true,
      "emissiveFactor": [
        0,
        0,
        0
      ],
      "extensions": {
        "KHR_materials_unlit": {}
      },
      "name": "material2",
      "pbrMetallicRoughness": {
        "baseColorFactor": [
          1,
          1,
          1,
          1
        ],
        "baseColorTexture": {
          "index": 0,
          "texCoord": 0
        },
        "metallicFactor": 0,
        "roughnessFactor": 1
      }
    },
    {
      "doubleSided": true,
      "emissiveFactor": [
        0,
        0,
        0
      ],
      "extensions": {
        "KHR_materials_unlit": {}
      },
      "name": "material3",
      "pbrMetallicRoughness": {
        "baseColorFactor": [
          1,
          1,
          1,
          1
        ],
        "baseColorTexture": {
          "index": 1,
          "texCoord": 0
        },
        "metallicFactor": 0,
        "roughnessFactor": 1
      }
    },
    {
      "doubleSided": true,
      "emissiveFactor": [
        0,
        0,
        0
      ],
      "extensions": {
        "KHR_materials_unlit": {}
      },
      "name": "material5",
      "pbrMetallicRoughness": {
        "baseColorFactor": [
          1,
          1,
          1,
          1
        ],
        "baseColorTexture": {
          "index": 2,
          "texCoord": 0
        },
        "metallicFactor": 0,
        "roughnessFactor": 1
      }
    },
    {
      "doubleSided": true,
      "emissiveFactor": [
        0,
        0,
        0
      ],
      "extensions": {
        "KHR_materials_unlit": {}
      },
      "name": "material4",
      "pbrMetallicRoughness": {
        "baseColorFactor": [
          1,
          1,
          1,
          1
        ],
        "baseColorTexture": {
          "index": 3,
          "texCoord": 0
        },
        "metallicFactor": 0,
        "roughnessFactor": 1
      }
    },
    {
      "doubleSided": true,
      "emissiveFactor": [
        0,
        0,
        0
      ],
      "extensions": {
        "KHR_materials_unlit": {}
      },
      "name": "material0",
      "pbrMetallicRoughness": {
        "baseColorFactor": [
          1,
          1,
          1,
          1
        ],
        "baseColorTexture": {
          "index": 4,
          "texCoord": 0
        },
        "metallicFactor": 0,
        "roughnessFactor": 1
      }
    },
    {
      "doubleSided": true,
      "emissiveFactor": [
        0,
        0,
        0
      ],
      "extensions": {
        "KHR_materials_unlit": {}
      },
      "name": "material1",
      "pbrMetallicRoughness": {
        "baseColorFactor": [
          1,
          1,
          1,
          1
        ],
        "baseColorTexture": {
          "index": 5,
          "texCoord": 0
        },
        "metallicFactor": 0,
        "roughnessFactor": 1
      }
    }
  ],
  "meshes": [
    {
      "name": "Model_material2_0",
      "primitives": [
        {
          "attributes": {
            "NORMAL": 1,
            "POSITION": 0,
            "TEXCOORD_0": 2
          },
          "indices": 3,
          "material": 0,
          "mode": 4
        }
      ]
    },
    {
      "name": "Model_material2_0",
      "primitives": [
        {
          "attributes": {
            "NORMAL": 5,
            "POSITION": 4,
            "TEXCOORD_0": 6
          },
          "indices": 7,
          "material": 0,
          "mode": 4
        }
      ]
    },
    {
      "name": "Model_material3_0",
      "primitives": [
        {
          "attributes": {
            "NORMAL": 9,
            "POSITION": 8,
            "TEXCOORD_0": 10
          },
          "indices": 11,
          "material": 1,
          "mode": 4
        }
      ]
    },
    {
      "name": "Model_material3_0",
      "primitives": [
        {
          "attributes": {
            "NORMAL": 13,
            "POSITION": 12,
            "TEXCOORD_0": 14
          },
          "indices": 15,
          "material": 1,
          "mode": 4
        }
      ]
    },
    {
      "name": "Model_material5_0",
      "primitives": [
        {
          "attributes": {
            "NORMAL": 17,
            "POSITION": 16,
            "TEXCOORD_0": 18
          },
          "indices": 19,
          "material": 2,
          "mode": 4
        }
      ]
    },
    {
      "name": "Model_material4_0",
      "primitives": [
        {
          "attributes": {
            "NORMAL": 21,
            "POSITION": 20,
            "TEXCOORD_0": 22
          },
          "indices": 23,
          "material": 3,
          "mode": 4
        }
      ]
    },
    {
      "name": "Model_material4_0",
      "primitives": [
        {
          "attributes": {
            "NORMAL": 25,
            "POSITION": 24,
            "TEXCOORD_0": 26
          },
          "indices": 27,
          "material": 3,
          "mode": 4
        }
      ]
    },
    {
      "name": "Model_material0_0",
      "primitives": [
        {
          "attributes": {
            "NORMAL": 29,
            "POSITION": 28,
            "TEXCOORD_0": 30
          },
          "indices": 31,
          "material": 4,
          "mode": 4
        }
      ]
    },
    {
      "name": "Model_material1_0",
      "primitives": [
        {
          "attributes": {
            "NORMAL": 33,
            "POSITION": 32,
            "TEXCOORD_0": 34
          },
          "indices": 35,
          "material": 5,
          "mode": 4
        }
      ]
    }
  ],
  "nodes": [
    {
      "children": [
        1
      ],
      "name": "RootNode (gltf orientation matrix)",
      "rotation": [
        -0.70710678118654746,
        -0,
        -0,
        0.70710678118654757
      ]
    },
    {
      "children": [
        2
      ],
      "matrix": [
        0.093278701038443046,
        0.010156329838569622,
        0.036093744574976938,
        0,
        -0.026099371614963118,
        0.087068763343332023,
        0.04294972410379394,
        0,
        -0.026920850567270449,
        -0.049220983146465613,
        0.083422949018849835,
        0,
        0.023899843916296959,
        0.052949953824281693,
        0.031271062791347504,
        1
      ],
      "name": "RootNode (model correction matrix)"
    },
    {
      "children": [
        3
      ],
      "matrix": [
        1,
        0,
        0,
        0,
        0,
        -1,
        0,
        0,
        0,
        0,
        -1,
        0,
        0,
        0,
        0,
        1
      ],
      "name": "model.fbx"
    },
    {
      "children": [
        4
      ],
      "name": "RootNode"
    },
    {
      "children": [
        5,
        6,
        7,
        8,
        9,
        10,
        11,
        12,
        13
      ],
      "name": "Model"
    },
    {
      "mesh": 0,
      "name": "Model_material2_0"
    },
    {
      "mesh": 1,
      "name": "Model_material2_0"
    },
    {
      "mesh": 2,
      "name": "Model_material3_0"
    },
    {
      "mesh": 3,
      "name": "Model_material3_0"
    },
    {
      "mesh": 4,
      "name": "Model_material5_0"
    },
    {
      "mesh": 5,
      "name": "Model_material4_0"
    },
    {
      "mesh": 6,
      "name": "Model_material4_0"
    },
    {
      "mesh": 7,
      "name": "Model_material0_0"
    },
    {
      "mesh": 8,
      "name": "Model_material1_0"
    }
  ],
  "samplers": [
    {
      "magFilter": 9729,
      "minFilter": 9987,
      "wrapS": 10497,
      "wrapT": 10497
    }
  ],
  "scene": 0,
  "scenes": [
    {
      "name": "OSG_Scene",
      "nodes": [
        0
      ]
    }
  ],
  "textures": [
    {
      "sampler": 0,
      "source": 0
    },
    {
      "sampler": 0,
      "source": 1
    },
    {
      "sampler": 0,
      "source": 2
    },
    {
      "sampler": 0,
      "source": 3
    },
    {
      "sampler": 0,
      "source": 4
    },
    {
      "sampler": 0,
      "source": 5
    }
  ]
}

