{
  "accessors": [
    {
      "bufferView": 2,
      "componentType": 5126,
      "count": 65532,
      "max": [
        4.7512989044189453,
        3.3324804306030273,
        4.2649068832397461
      ],
      "min": [
        0,
        0,
        0
      ],
      "type": "VEC3"
    },
    {
      "bufferView": 2,
      "byteOffset": 786384,
      "componentType": 5126,
      "count": 65532,
      "max": [
        0.99950104951858521,
        0.99992585182189941,
        0.9999542236328125
      ],
      "min": [
        -0.99996805191040039,
        -0.99993652105331421,
        -0.99992942810058594
      ],
      "type": "VEC3"
    },
    {
      "bufferView": 3,
      "componentType": 5126,
      "count": 65532,
      "max": [
        0.99980783462524414,
        0.99990165233612061,
        0.99991351366043091,
        1
      ],
      "min": [
        -0.99999934434890747,
        -0.9999469518661499,
        -0.99991601705551147,
        -1
      ],
      "type": "VEC4"
    },
    {
      "bufferView": 1,
      "componentType": 5126,
      "count": 65532,
      "max": [
        1.0154800415039062,
        1.0449709892272949
      ],
      "min": [
        0.0032989999745041132,
        0.0035180000122636557
      ],
      "type": "VEC2"
    },
    {
      "bufferView": 0,
      "componentType": 5125,
      "count": 358872,
      "max": [
        65531
      ],
      "min": [
        0
      ],
      "type": "SCALAR"
    },
    {
      "bufferView": 2,
      "byteOffset": 1572768,
      "componentType": 5126,
      "count": 22322,
      "max": [
        4.7512989044189453,
        3.3029742240905762,
        4.2649049758911133
      ],
      "min": [
        0.31724798679351807,
        0.018532752990722656,
        0.02319800853729248
      ],
      "type": "VEC3"
    },
    {
      "bufferView": 2,
      "byteOffset": 1840632,
      "componentType": 5126,
      "count": 22322,
      "max": [
        0.9999956488609314,
        0.99966728687286377,
        0.99979221820831299
      ],
      "min": [
        -0.9999079704284668,
        -0.99940967559814453,
        -0.99983912706375122
      ],
      "type": "VEC3"
    },
    {
      "bufferView": 3,
      "byteOffset": 1048512,
      "componentType": 5126,
      "count": 22322,
      "max": [
        0.99994593858718872,
        0.99955397844314575,
        0.99998527765274048,
        1
      ],
      "min": [
        -0.99994552135467529,
        -0.9999469518661499,
        -0.99948406219482422,
        -1
      ],
      "type": "VEC4"
    },
    {
      "bufferView": 1,
      "byteOffset": 524256,
      "componentType": 5126,
      "count": 22322,
      "max": [
        0.99216300249099731,
        1.0230300426483154
      ],
      "min": [
        0.0057729999534785748,
        0.0039059999398887157
      ],
      "type": "VEC2"
    },
    {
      "bufferView": 0,
      "byteOffset": 1435488,
      "componentType": 5125,
      "count": 90066,
      "max": [
        22321
      ],
      "min": [
        0
      ],
      "type": "SCALAR"
    }
  ],
  "asset": {
    "extras": {
      "author": "CadForCam (https://sketchfab.com/yuelands)",
      "license": "CC-BY-NC-4.0 (http://creativecommons.org/licenses/by-nc/4.0/)",
      "source": "https://sketchfab.com/models/6393b8e2cfb44eb1909834fcac993eab",
      "title": "Roca5 - Cad For Cam"
    },
    "generator": "Sketchfab-3.18.7",
    "version": "2.0"
  },
  "bufferViews": [
    {
      "buffer": 0,
      "byteLength": 1795752,
      "byteOffset": 0,
      "name": "floatBufferViews",
      "target": 34963
    },
    {
      "buffer": 0,
      "byteLength": 702832,
      "byteOffset": 1795752,
      "byteStride": 8,
      "name": "floatBufferViews",
      "target": 34962
    },
    {
      "buffer": 0,
      "byteLength": 2108496,
      "byteOffset": 2498584,
      "byteStride": 12,
      "name": "floatBufferViews",
      "target": 34962
    },
    {
      "buffer": 0,
      "byteLength": 1405664,
      "byteOffset": 4607080,
      "byteStride": 16,
      "name": "floatBufferViews",
      "target": 34962
    }
  ],
  "buffers": [
    {
      "byteLength": 6012744,
      "uri": "scene.bin"
    }
  ],
  "images": [
    {
      "uri": "textures/material_0_baseColor.jpeg"
    }
  ],
  "materials": [
    {
      "doubleSided": true,
      "emissiveFactor": [
        0,
        0,
        0
      ],
      "name": "material_0",
      "pbrMetallicRoughness": {
        "baseColorFactor": [
          1,
          1,
          1,
          1
        ],
        "baseColorTexture": {
          "index": 0,
          "texCoord": 0
        },
        "metallicFactor": 0,
        "roughnessFactor": 0.59999999999999998
      }
    }
  ],
  "meshes": [
    {
      "primitives": [
        {
          "attributes": {
            "NORMAL": 1,
            "POSITION": 0,
            "TANGENT": 2,
            "TEXCOORD_0": 3
          },
          "indices": 4,
          "material": 0,
          "mode": 4
        }
      ]
    },
    {
      "primitives": [
        {
          "attributes": {
            "NORMAL": 6,
            "POSITION": 5,
            "TANGENT": 7,
            "TEXCOORD_0": 8
          },
          "indices": 9,
          "material": 0,
          "mode": 4
        }
      ]
    }
  ],
  "nodes": [
    {
      "children": [
        1
      ],
      "name": "RootNode (gltf orientation matrix)",
      "rotation": [
        -0.70710678118654746,
        -0,
        -0,
        0.70710678118654757
      ]
    },
    {
      "children": [
        2
      ],
      "matrix": [
        0.99996680021286011,
        0,
        -0.0081511158496141434,
        0,
        0.0081511158496141434,
        0,
        0.99996680021286011,
        0,
        0,
        -1,
        0,
        0,
        0.077738672494888306,
        -8.9589471817016602,
        10.115099906921387,
        1
      ],
      "name": "RootNode (model correction matrix)"
    },
    {
      "children": [
        3,
        4
      ],
      "matrix": [
        1,
        0,
        0,
        0,
        0,
        1,
        0,
        0,
        0,
        0,
        1,
        0,
        -0.48250299692153931,
        -11.195730209350586,
        -1.5619410276412964,
        1
      ],
      "name": "Roca5.obj.cleaner.gles"
    },
    {
      "mesh": 0,
      "name": ""
    },
    {
      "mesh": 1,
      "name": ""
    }
  ],
  "samplers": [
    {
      "magFilter": 9729,
      "minFilter": 9987,
      "wrapS": 10497,
      "wrapT": 10497
    }
  ],
  "scene": 0,
  "scenes": [
    {
      "name": "OSG_Scene",
      "nodes": [
        0
      ]
    }
  ],
  "textures": [
    {
      "sampler": 0,
      "source": 0
    }
  ]
}

