{
  "accessors": [
    {
      "bufferView": 2,
      "componentType": 5126,
      "count": 13278,
      "max": [
        2593.20751953125,
        2815.10107421875,
        745.220703125
      ],
      "min": [
        -2649.62646484375,
        -3071.17919921875,
        -559.643310546875
      ],
      "type": "VEC3"
    },
    {
      "bufferView": 2,
      "byteOffset": 159336,
      "componentType": 5126,
      "count": 13278,
      "max": [
        0.99849426746368408,
        0.99990105628967285,
        1
      ],
      "min": [
        -0.99961894750595093,
        -0.9973265528678894,
        -0.99869972467422485
      ],
      "type": "VEC3"
    },
    {
      "bufferView": 3,
      "componentType": 5126,
      "count": 13278,
      "max": [
        0.9993172287940979,
        0.99999827146530151,
        0.99708586931228638,
        1
      ],
      "min": [
        -0.99976241588592529,
        -0.99999946355819702,
        -0.99687278270721436,
        -1
      ],
      "type": "VEC4"
    },
    {
      "bufferView": 3,
      "byteOffset": 212448,
      "componentType": 5126,
      "count": 13278,
      "max": [
        1,
        1,
        1,
        1
      ],
      "min": [
        1,
        1,
        1,
        0
      ],
      "type": "VEC4"
    },
    {
      "bufferView": 1,
      "componentType": 5126,
      "count": 13278,
      "max": [
        0.99807620048522949,
        0.99849998950958252
      ],
      "min": [
        0.001500000013038516,
        0.001500000013038516
      ],
      "type": "VEC2"
    },
    {
      "bufferView": 0,
      "componentType": 5125,
      "count": 73491,
      "max": [
        13277
      ],
      "min": [
        0
      ],
      "type": "SCALAR"
    }
  ],
  "asset": {
    "extras": {
      "author": "3dhdscan (https://sketchfab.com/3dhdscan)",
      "license": "CC-BY-4.0 (http://creativecommons.org/licenses/by/4.0/)",
      "source": "https://sketchfab.com/models/c356e6679e8242659adee7f6c6304c37",
      "title": "A pile of clay"
    },
    "generator": "Sketchfab-3.23.2",
    "version": "2.0"
  },
  "bufferViews": [
    {
      "buffer": 0,
      "byteLength": 293964,
      "byteOffset": 0,
      "name": "floatBufferViews",
      "target": 34963
    },
    {
      "buffer": 0,
      "byteLength": 106224,
      "byteOffset": 293964,
      "byteStride": 8,
      "name": "floatBufferViews",
      "target": 34962
    },
    {
      "buffer": 0,
      "byteLength": 318672,
      "byteOffset": 400188,
      "byteStride": 12,
      "name": "floatBufferViews",
      "target": 34962
    },
    {
      "buffer": 0,
      "byteLength": 424896,
      "byteOffset": 718860,
      "byteStride": 16,
      "name": "floatBufferViews",
      "target": 34962
    }
  ],
  "buffers": [
    {
      "byteLength": 1143756,
      "uri": "scene.bin"
    }
  ],
  "images": [
    {
      "uri": "textures/hromada_hlina_01_30k_baseColor.png"
    },
    {
      "uri": "textures/hromada_hlina_01_30k_metallicRoughness.png"
    },
    {
      "uri": "textures/hromada_hlina_01_30k_normal.jpeg"
    }
  ],
  "materials": [
    {
      "alphaMode": "BLEND",
      "doubleSided": false,
      "name": "hromada_hlina_01_30k",
      "normalTexture": {
        "index": 2,
        "scale": 1,
        "texCoord": 0
      },
      "occlusionTexture": {
        "index": 1,
        "strength": 1,
        "texCoord": 0
      },
      "pbrMetallicRoughness": {
        "baseColorFactor": [
          1,
          1,
          1,
          1
        ],
        "baseColorTexture": {
          "index": 0,
          "texCoord": 0
        },
        "metallicFactor": 0,
        "roughnessFactor": 0.88852896339999998
      }
    }
  ],
  "meshes": [
    {
      "name": "hromada_hlina_01_30k_hromada_hlina_01_30k_0",
      "primitives": [
        {
          "attributes": {
            "COLOR_0": 3,
            "NORMAL": 1,
            "POSITION": 0,
            "TANGENT": 2,
            "TEXCOORD_0": 4
          },
          "indices": 5,
          "material": 0,
          "mode": 4
        }
      ]
    }
  ],
  "nodes": [
    {
      "children": [
        1
      ],
      "name": "RootNode (gltf orientation matrix)",
      "rotation": [
        -0.70710678118654746,
        -0,
        -0,
        0.70710678118654757
      ]
    },
    {
      "children": [
        2
      ],
      "name": "RootNode (model correction matrix)"
    },
    {
      "children": [
        3
      ],
      "matrix": [
        1,
        0,
        0,
        0,
        0,
        0,
        1,
        0,
        0,
        -1,
        0,
        0,
        0,
        0,
        0,
        1
      ],
      "name": "hromada_hlina_01_30k_f.FBX"
    },
    {
      "children": [
        4
      ],
      "name": "RootNode"
    },
    {
      "children": [
        5
      ],
      "matrix": [
        0.0099999997764825821,
        0,
        0,
        0,
        0,
        2.2204459996194763e-18,
        -0.0099999997764825821,
        0,
        0,
        0.0099999997764825821,
        2.2204459996194763e-18,
        0,
        0.028043344616889954,
        0.00559643330052495,
        0.13146820664405823,
        1
      ],
      "name": "hromada_hlina_01_30k"
    },
    {
      "mesh": 0,
      "name": "hromada_hlina_01_30k_hromada_hlina_01_30k_0"
    }
  ],
  "samplers": [
    {
      "magFilter": 9729,
      "minFilter": 9987,
      "wrapS": 33071,
      "wrapT": 33071
    },
    {
      "magFilter": 9729,
      "minFilter": 9987,
      "wrapS": 10497,
      "wrapT": 10497
    }
  ],
  "scene": 0,
  "scenes": [
    {
      "name": "OSG_Scene",
      "nodes": [
        0
      ]
    }
  ],
  "textures": [
    {
      "sampler": 0,
      "source": 0
    },
    {
      "sampler": 1,
      "source": 1
    },
    {
      "sampler": 1,
      "source": 2
    }
  ]
}

